HIERARCHY
ROOT Hips
{
	OFFSET 50.341099 -9.139986 100.635002
	CHANNELS 6 Xposition Yposition Zposition Xrotation Yrotation Zrotation
	JOINT spine
	{
		OFFSET 0.000000 -0.507026 8.817039
		CHANNELS 3 Xrotation Yrotation Zrotation
		JOINT spine1
		{
			OFFSET 0.000000 -0.000002 10.776596
			CHANNELS 3 Xrotation Yrotation Zrotation
			JOINT spine2
			{
				OFFSET 0.000000 -0.000001 10.325897
				CHANNELS 3 Xrotation Yrotation Zrotation
				JOINT Neck
				{
					OFFSET 0.000000 -1.263955 26.511002
					CHANNELS 3 Xrotation Yrotation Zrotation
					JOINT Head
					{
						OFFSET 0.000000 -0.000001 8.009659
						CHANNELS 3 Xrotation Yrotation Zrotation
						End Site
						{
							OFFSET 0.000000 6.393857 19.387894
						}
					}
				}
				JOINT RightShoulder
				{
					OFFSET -4.347950 0.605420 11.151199
					CHANNELS 3 Xrotation Yrotation Zrotation
					JOINT RightArm
					{
						OFFSET 0.000000 -0.000003 14.625793
						CHANNELS 3 Xrotation Yrotation Zrotation
						JOINT RightArmRoll
						{
							OFFSET 0.000000 -0.000001 7.383408
							CHANNELS 3 Xrotation Yrotation Zrotation
							JOINT RightForeArm
							{
								OFFSET 0.000000 -0.000004 21.505203
								CHANNELS 3 Xrotation Yrotation Zrotation
								JOINT RightForeArmRoll
								{
									OFFSET 0.000000 -0.000001 8.285324
									CHANNELS 3 Xrotation Yrotation Zrotation
									JOINT RightHand
									{
										OFFSET 0.000000 -0.000003 16.626801
										CHANNELS 3 Xrotation Yrotation Zrotation
										End Site
										{
											OFFSET 0.000000 0.000000 0.100006
										}
									}
								}
							}
						}
					}
				}
				JOINT LeftShoulder
				{
					OFFSET 4.347950 0.605420 11.151199
					CHANNELS 3 Xrotation Yrotation Zrotation
					JOINT LeftArm
					{
						OFFSET 0.000000 -0.000003 14.625793
						CHANNELS 3 Xrotation Yrotation Zrotation
						JOINT LeftArmRoll
						{
							OFFSET 0.000000 -0.000001 7.383408
							CHANNELS 3 Xrotation Yrotation Zrotation
							JOINT LeftForeArm
							{
								OFFSET 0.000000 -0.000004 21.505203
								CHANNELS 3 Xrotation Yrotation Zrotation
								JOINT LeftForeArmRoll
								{
									OFFSET 0.000000 -0.000001 8.285324
									CHANNELS 3 Xrotation Yrotation Zrotation
									JOINT LeftHand
									{
										OFFSET 0.000000 -0.000003 16.626801
										CHANNELS 3 Xrotation Yrotation Zrotation
										End Site
										{
											OFFSET 0.000000 0.000000 0.100006
										}
									}
								}
							}
						}
					}
				}
			}
		}
	}
	JOINT RightUpLeg
	{
		OFFSET -7.815102 1.202170 -1.433090
		CHANNELS 3 Xrotation Yrotation Zrotation
		JOINT RightUpLegRoll
		{
			OFFSET 0.000000 -0.000003 19.495903
			CHANNELS 3 Xrotation Yrotation Zrotation
			JOINT RightLeg
			{
				OFFSET 0.000000 0.000004 -24.142700
				CHANNELS 3 Xrotation Yrotation Zrotation
				JOINT RightLegRoll
				{
					OFFSET 0.000000 -0.000004 24.221703
					CHANNELS 3 Xrotation Yrotation Zrotation
					JOINT RightFoot
					{
						OFFSET 0.000000 -0.000003 20.160500
						CHANNELS 3 Xrotation Yrotation Zrotation
						JOINT RightToeBase
						{
							OFFSET 0.000000 -0.000003 16.853195
							CHANNELS 3 Xrotation Yrotation Zrotation
							End Site
							{
								OFFSET 0.007145 0.940780 8.161865
							}
						}
					}
				}
			}
		}
	}
	JOINT LeftUpLeg
	{
		OFFSET 7.815102 1.202170 -1.433090
		CHANNELS 3 Xrotation Yrotation Zrotation
		JOINT LeftUpLegRoll
		{
			OFFSET 0.000000 -0.000003 19.496002
			CHANNELS 3 Xrotation Yrotation Zrotation
			JOINT LeftLeg
			{
				OFFSET 0.000000 -0.000004 24.142601
				CHANNELS 3 Xrotation Yrotation Zrotation
				JOINT LeftLegRoll
				{
					OFFSET 0.000000 -0.000004 24.445602
					CHANNELS 3 Xrotation Yrotation Zrotation
					JOINT LeftFoot
					{
						OFFSET 0.000000 -0.000003 19.936600
						CHANNELS 3 Xrotation Yrotation Zrotation
						JOINT LeftToeBase
						{
							OFFSET 0.000000 -0.000003 16.853195
							CHANNELS 3 Xrotation Yrotation Zrotation
							End Site
							{
								OFFSET -0.032013 0.940779 8.161865
							}
						}
					}
				}
			}
		}
	}
}
MOTION
Frames: 5
Frame Time: 0.041667
52.011307 -9.053183 100.611992 -2.316848 0.526037 1.641153 -2.138934 -0.262054 -0.121931 -0.275643 -0.531592 -0.251093 1.369459 -0.534555 -0.244747 25.252162 2.304850 2.038969 -6.790825 6.554489 1.912424 -1.793448 -65.402975 -2.877361 -28.169913 -110.286839 -15.523179 -0.000001 -0.000000 -0.000001 7.147510 -15.842422 0.814382 0.000009 0.000008 -3.000000 -5.000209 -7.998823 0.000161 -8.663672 63.685743 10.566994 -47.524788 115.635581 44.307519 0.000000 0.000001 -0.000000 5.688204 14.611815 -0.474433 0.000002 -0.000005 3.000010 -5.000213 7.998774 -0.000180 0.694240 -178.969070 -0.253580 -179.999991 0.000005 -1.051995 174.606136 -2.379432 -0.446594 -0.000003 0.000004 0.036288 68.406045 6.889413 2.191185 25.456902 -7.352949 -0.000005 -0.191081 176.852012 2.007014 -0.000005 -0.000004 -1.092530 -8.599248 2.304657 0.510638 -0.000003 -0.000001 -0.153289 70.410754 -6.850987 -2.131779 25.456912 7.358224 -0.000002 
51.996704 -9.038305 100.604988 -2.313129 0.528553 1.623440 -2.138573 -0.263556 -0.120788 -0.274924 -0.533843 -0.248855 1.370171 -0.536779 -0.242478 25.221331 2.294140 2.037823 -6.732630 6.546312 1.906900 -1.833667 -65.416704 -2.924329 -28.143699 -110.269026 -15.544156 -0.000001 0.000000 0.000000 7.298299 -15.856576 0.833827 0.000011 0.000008 -3.000000 -5.000212 -7.998819 0.000161 -8.627812 63.676822 10.525179 -47.585672 115.688187 44.409996 0.000001 0.000000 0.000000 5.697942 14.632584 -0.478177 0.000002 -0.000005 3.000009 -5.000209 7.998772 -0.000180 0.678008 -178.970067 -0.255061 -179.999991 0.000005 -1.051994 174.596424 -2.379394 -0.445999 -0.000004 0.000004 0.036288 68.402371 6.889434 2.191119 25.456899 -7.352950 -0.000005 -0.201534 176.848009 2.002192 -0.000005 -0.000004 -1.092530 -8.610108 2.309405 0.510784 -0.000002 -0.000000 -0.153289 70.412461 -6.850979 -2.131773 25.456914 7.358224 -0.000001 
52.005505 -9.059222 100.609993 -2.309609 0.530999 1.605816 -2.138173 -0.265061 -0.119516 -0.274111 -0.536074 -0.246364 1.370991 -0.538982 -0.239958 25.188633 2.285133 2.036493 -6.671687 6.535183 1.901345 -1.875230 -65.429886 -2.972772 -28.118547 -110.252517 -15.564253 -0.000001 -0.000000 0.000001 7.446377 -15.869610 0.852931 0.000009 0.000008 -3.000000 -5.000212 -7.998822 0.000160 -8.592034 63.667800 10.483455 -47.648469 115.741722 44.513497 0.000001 0.000001 0.000000 5.705217 14.652619 -0.481572 0.000001 -0.000005 3.000010 -5.000211 7.998774 -0.000180 0.662023 -178.971064 -0.256502 -179.999991 0.000005 -1.051994 174.586711 -2.379355 -0.446403 -0.000004 0.000004 0.036288 68.398675 6.889419 2.191146 25.456899 -7.352950 -0.000005 -0.211850 176.845031 1.997360 -0.000005 -0.000004 -1.092530 -8.621134 2.314123 0.510915 -0.000002 -0.000000 -0.153289 70.414162 -6.851007 -2.131774 25.456909 7.358225 -0.000001 
52.016903 -9.055982 100.612984 -2.306228 0.533395 1.588252 -2.137735 -0.266568 -0.118155 -0.273229 -0.538292 -0.243696 1.371871 -0.541167 -0.237261 25.154552 2.277332 2.035040 -6.608817 6.521991 1.895766 -1.917754 -65.442761 -3.022262 -28.093745 -110.237177 -15.583418 -0.000001 0.000000 0.000000 7.592561 -15.882002 0.871826 0.000008 0.000007 -3.000000 -5.000211 -7.998821 0.000160 -8.556304 63.658770 10.441800 -47.712372 115.795831 44.617480 0.000000 0.000001 0.000000 5.710763 14.672100 -0.484718 -0.000001 -0.000005 3.000009 -5.000210 7.998775 -0.000180 0.646211 -178.972048 -0.257915 -179.999991 0.000005 -1.051994 174.576930 -2.380310 -0.445892 -0.000004 0.000004 0.036288 68.395001 6.889440 2.191078 25.456904 -7.352949 -0.000006 -0.222072 176.842026 1.992504 -0.000005 -0.000004 -1.092530 -8.632292 2.318841 0.511040 -0.000002 -0.000001 -0.153289 70.415958 -6.850970 -2.131756 25.456914 7.358225 -0.000001 
52.012905 -9.032715 100.610992 -2.302941 0.535761 1.570726 -2.137271 -0.268076 -0.116740 -0.272307 -0.540501 -0.240928 1.372792 -0.543344 -0.234463 25.119786 2.270200 2.033516 -6.544862 6.507622 1.890198 -1.960842 -65.455417 -3.072360 -28.069846 -110.222014 -15.602625 -0.000000 -0.000000 0.000001 7.737669 -15.893932 0.890615 0.000009 0.000007 -3.000001 -5.000207 -7.998823 0.000161 -8.520668 63.649823 10.400250 -47.775175 115.850909 44.719871 0.000003 -0.000000 0.000001 5.715322 14.691402 -0.487739 0.000001 -0.000005 3.000010 -5.000207 7.998775 -0.000180 0.630501 -178.973059 -0.259312 -179.999991 0.000005 -1.051994 174.567150 -2.380271 -0.446299 -0.000004 0.000004 0.036288 68.391217 6.889453 2.191216 25.456902 -7.352950 -0.000006 -0.232234 176.838024 1.987650 -0.000005 -0.000004 -1.092540 -8.643522 2.323537 0.511159 -0.000002 -0.000001 -0.153289 70.417673 -6.850998 -2.131756 25.456912 7.358225 -0.000002 
